<?xml version="1.0" encoding="utf-8"?>
<!-- Generator: Adobe Illustrator 26.0.1, SVG Export Plug-In . SVG Version: 6.00 Build 0)  -->
<svg version="1.1" id="Layer_1" xmlns="http://www.w3.org/2000/svg" xmlns:xlink="http://www.w3.org/1999/xlink" x="0px" y="0px"
	 viewBox="0 0 160 40" style="enable-background:new 0 0 160 40;" xml:space="preserve">
<style type="text/css">
	.st0{fill:#FFFFFF;}
	.st1{fill:#F06348;}
	.st2{fill:#F4AA9D;}
</style>
<path class="st0" d="M64.3,27h-3.7v-9.4c0.1-1.2-0.2-2.3-0.8-3.4c-0.6-0.7-1.5-1.2-2.5-1.1c-1,0-1.9,0.5-2.5,1.3
	c-0.7,0.9-1,2.1-1,3.2V27h-3.7v-9.6c0.1-1.1-0.2-2.2-0.8-3.2c-0.6-0.7-1.4-1.1-2.4-1.1s-1.9,0.5-2.5,1.3c-0.7,1-1,2.1-1,3.3V27h-3.7
	V10.6h3.7v2.6h0.1c0.5-0.9,1.3-1.7,2.2-2.2s1.9-0.8,3-0.8c1,0,2.1,0.3,2.9,0.9c0.8,0.6,1.5,1.4,1.8,2.4c0.5-1,1.3-1.9,2.3-2.5
	c1-0.5,2.1-0.8,3.2-0.8c1.5-0.1,3,0.5,4,1.7c1,1.5,1.5,3.2,1.3,5L64.3,27z"/>
<path class="st0" d="M100.9,27h-3.7v-9.2c0.1-1.2-0.2-2.4-0.8-3.4c-0.6-0.8-1.5-1.2-2.5-1.1c-1.1,0-2.1,0.4-2.8,1.3
	c-0.7,0.9-1.1,2-1.1,3.2V27h-3.7V10.6H90v2.7h0.1c0.5-0.9,1.3-1.7,2.2-2.3c0.9-0.5,2-0.8,3.1-0.8c1.6-0.1,3.1,0.6,4.1,1.8
	c1,1.5,1.5,3.2,1.4,5C100.9,17,100.9,27,100.9,27z"/>
<path class="st0" d="M137.9,25.5c0.1,2.4-0.7,4.9-2.4,6.7c-1.8,1.7-4.2,2.6-6.7,2.4c-2.2,0-4.3-0.4-6.2-1.4l1.2-2.6
	c0.8,0.4,1.6,0.7,2.4,0.9c0.9,0.2,1.7,0.3,2.6,0.3c1.5,0.1,2.9-0.4,3.9-1.5c1-1.2,1.5-2.7,1.4-4.2v-1.6H134
	c-0.5,0.9-1.3,1.7-2.2,2.2c-1,0.5-2,0.8-3.1,0.7c-1.9,0.1-3.7-0.7-4.9-2.2c-1.3-1.7-2-3.8-1.8-5.9c-0.1-2.4,0.6-4.7,2-6.6
	c1.3-1.6,3.3-2.6,5.4-2.5c1,0,1.9,0.2,2.8,0.6c0.8,0.4,1.5,1.1,1.9,1.9h0.1v-2.1h3.7L137.9,25.5z M134.1,19.4v-1.9
	c0-1.1-0.4-2.2-1.1-3c-0.7-0.8-1.8-1.3-2.9-1.3c-1.3,0-2.5,0.5-3.3,1.5c-0.9,1.3-1.3,2.9-1.2,4.4c-0.1,1.4,0.3,2.8,1.1,3.9
	c0.7,0.9,1.9,1.5,3.1,1.4c1.2,0,2.4-0.5,3.1-1.5C133.8,22,134.2,20.7,134.1,19.4z"/>
<path class="st0" d="M156.7,19.8h-11.2c0,1.3,0.5,2.6,1.4,3.5c1,0.9,2.2,1.3,3.5,1.2c0.7,0,1.4-0.1,2.1-0.4c0.8-0.3,1.6-0.7,2.4-1.2
	l1.7,2.3c-1,0.7-2,1.2-3.1,1.6c-1.1,0.3-2.3,0.5-3.5,0.5c-2.2,0.1-4.4-0.7-5.9-2.2c-1.5-1.7-2.3-3.9-2.1-6.2
	c-0.1-2.3,0.7-4.6,2.2-6.3c1.4-1.6,3.5-2.5,5.6-2.4c2-0.1,3.8,0.7,5.2,2.1c1.4,1.6,2,3.7,1.9,5.9v1.6H156.7z M153.1,17.2
	c0.1-1.1-0.3-2.3-0.9-3.2c-0.7-0.7-1.6-1.1-2.6-1c-1,0-2,0.4-2.7,1.1c-0.8,0.9-1.3,2-1.4,3.1H153.1z"/>
<circle class="st1" cx="15.6" cy="13" r="4.3"/>
<circle class="st1" cx="29" cy="13" r="4.3"/>
<circle class="st1" cx="15.6" cy="27" r="4.3"/>
<circle class="st2" cx="29" cy="27" r="4.3"/>
<path class="st0" d="M79.9,11.3c-0.1,0.8-1,1.1-1.6,0.6c-0.8-0.5-2.4-1.4-5-1.4c-0.2,0-0.3,0-0.5,0.1c-1.3,0.3-6,1.9-6.1,8.2
	c0,1.4,0.4,3.2,1.1,4.4c1,1.7,3,3.9,7,4c0.7,0,1.5-0.1,2.1-0.5c0.9-0.4,2.2-1.2,3.2-2.2c0.1-0.1,0.4-0.1,0.4,0.1v2.6h3.3V10.4H80
	 M75.2,23.8c-2.5,0-4.6-2.2-4.6-5c0-2.7,2-5,4.6-5c2.5,0,4.6,2.2,4.6,5C79.8,21.6,77.8,23.8,75.2,23.8z"/>
<path class="st0" d="M116,11.3c-0.1,0.8-1,1.1-1.6,0.6c-0.8-0.5-2.4-1.4-5-1.4c-0.2,0-0.3,0-0.5,0.1c-1.3,0.3-6,1.9-6.1,8.2
	c0,1.4,0.4,3.2,1.1,4.4c1,1.7,3,3.9,7,4c0.7,0,1.5-0.1,2.1-0.5c0.9-0.4,2.2-1.2,3.2-2.2c0.1-0.1,0.4-0.1,0.4,0.1v2.6h3.3V10.4h-3.8
	 M111.3,23.8c-2.5,0-4.6-2.2-4.6-5c0-2.7,2-5,4.6-5s4.6,2.2,4.6,5S113.9,23.8,111.3,23.8z"/>
</svg>
